<svg id="visual" viewBox="0 0 960 800" width="960" height="800" xmlns="http://www.w3.org/2000/svg" xmlns:xlink="http://www.w3.org/1999/xlink" version="1.1"><path d="M0 89L14.5 94.3C29 99.7 58 110.3 87.2 113C116.3 115.7 145.7 110.3 174.8 103.7C204 97 233 89 262 94.3C291 99.7 320 118.3 349 122.3C378 126.3 407 115.7 436.2 102.3C465.3 89 494.7 73 523.8 70.3C553 67.7 582 78.3 611 85C640 91.7 669 94.3 698 102.3C727 110.3 756 123.7 785.2 127.7C814.3 131.7 843.7 126.3 872.8 125C902 123.7 931 126.3 945.5 127.7L960 129L960 0L945.5 0C931 0 902 0 872.8 0C843.7 0 814.3 0 785.2 0C756 0 727 0 698 0C669 0 640 0 611 0C582 0 553 0 523.8 0C494.7 0 465.3 0 436.2 0C407 0 378 0 349 0C320 0 291 0 262 0C233 0 204 0 174.8 0C145.7 0 116.3 0 87.2 0C58 0 29 0 14.5 0L0 0Z" fill="#6198ff"></path><path d="M0 377L14.5 371.7C29 366.3 58 355.7 87.2 362.3C116.3 369 145.7 393 174.8 395.7C204 398.3 233 379.7 262 351.7C291 323.7 320 286.3 349 265C378 243.7 407 238.3 436.2 250.3C465.3 262.3 494.7 291.7 523.8 309C553 326.3 582 331.7 611 337C640 342.3 669 347.7 698 355.7C727 363.7 756 374.3 785.2 377C814.3 379.7 843.7 374.3 872.8 379.7C902 385 931 401 945.5 409L960 417L960 127L945.5 125.7C931 124.3 902 121.7 872.8 123C843.7 124.3 814.3 129.7 785.2 125.7C756 121.7 727 108.3 698 100.3C669 92.3 640 89.7 611 83C582 76.3 553 65.7 523.8 68.3C494.7 71 465.3 87 436.2 100.3C407 113.7 378 124.3 349 120.3C320 116.3 291 97.7 262 92.3C233 87 204 95 174.8 101.7C145.7 108.3 116.3 113.7 87.2 111C58 108.3 29 97.7 14.5 92.3L0 87Z" fill="#3c80ff"></path><path d="M0 497L14.5 487.7C29 478.3 58 459.7 87.2 459.7C116.3 459.7 145.7 478.3 174.8 491.7C204 505 233 513 262 489C291 465 320 409 349 387.7C378 366.3 407 379.7 436.2 393C465.3 406.3 494.7 419.7 523.8 421C553 422.3 582 411.7 611 419.7C640 427.7 669 454.3 698 466.3C727 478.3 756 475.7 785.2 474.3C814.3 473 843.7 473 872.8 475.7C902 478.3 931 483.7 945.5 486.3L960 489L960 415L945.5 407C931 399 902 383 872.8 377.7C843.7 372.3 814.3 377.7 785.2 375C756 372.3 727 361.7 698 353.7C669 345.7 640 340.3 611 335C582 329.7 553 324.3 523.8 307C494.7 289.7 465.3 260.3 436.2 248.3C407 236.3 378 241.7 349 263C320 284.3 291 321.7 262 349.7C233 377.7 204 396.3 174.8 393.7C145.7 391 116.3 367 87.2 360.3C58 353.7 29 364.3 14.5 369.7L0 375Z" fill="#0066ff"></path><path d="M0 585L14.5 583.7C29 582.3 58 579.7 87.2 590.3C116.3 601 145.7 625 174.8 641C204 657 233 665 262 649C291 633 320 593 349 559.7C378 526.3 407 499.7 436.2 495.7C465.3 491.7 494.7 510.3 523.8 514.3C553 518.3 582 507.7 611 517C640 526.3 669 555.7 698 570.3C727 585 756 585 785.2 583.7C814.3 582.3 843.7 579.7 872.8 595.7C902 611.7 931 646.3 945.5 663.7L960 681L960 487L945.5 484.3C931 481.7 902 476.3 872.8 473.7C843.7 471 814.3 471 785.2 472.3C756 473.7 727 476.3 698 464.3C669 452.3 640 425.7 611 417.7C582 409.7 553 420.3 523.8 419C494.7 417.7 465.3 404.3 436.2 391C407 377.7 378 364.3 349 385.7C320 407 291 463 262 487C233 511 204 503 174.8 489.7C145.7 476.3 116.3 457.7 87.2 457.7C58 457.7 29 476.3 14.5 485.7L0 495Z" fill="#0059dd"></path><path d="M0 801L14.5 801C29 801 58 801 87.2 801C116.3 801 145.7 801 174.8 801C204 801 233 801 262 801C291 801 320 801 349 801C378 801 407 801 436.2 801C465.3 801 494.7 801 523.8 801C553 801 582 801 611 801C640 801 669 801 698 801C727 801 756 801 785.2 801C814.3 801 843.7 801 872.8 801C902 801 931 801 945.5 801L960 801L960 679L945.5 661.7C931 644.3 902 609.7 872.8 593.7C843.7 577.7 814.3 580.3 785.2 581.7C756 583 727 583 698 568.3C669 553.7 640 524.3 611 515C582 505.7 553 516.3 523.8 512.3C494.7 508.3 465.3 489.7 436.2 493.7C407 497.7 378 524.3 349 557.7C320 591 291 631 262 647C233 663 204 655 174.8 639C145.7 623 116.3 599 87.2 588.3C58 577.7 29 580.3 14.5 581.7L0 583Z" fill="#004cbb"></path></svg>